<svg width="100" height="21" viewBox="0 0 100 21" fill="none" xmlns="http://www.w3.org/2000/svg">
<g clip-path="url(#clip0_1247_1775)">
<path d="M21.4432 1.84866C20.9964 1.37428 20.384 1.09028 19.7332 1.05566H16.0272C15.9825 1.05727 15.939 1.07104 15.9014 1.09546C15.8638 1.11988 15.8336 1.15406 15.814 1.19434C15.7944 1.23461 15.7861 1.27944 15.79 1.32407C15.7939 1.36869 15.8099 1.41142 15.8362 1.44766L22.5232 9.41867L25.1592 6.26968L21.4472 1.84866" fill="#746661"/>
<path d="M21.4438 18.8427L25.9348 13.4957L30.4308 18.8427C30.8799 19.3165 31.493 19.6008 32.1448 19.6377H35.8558C35.9006 19.6343 35.9437 19.6191 35.9808 19.5937C36.0179 19.5682 36.0476 19.5334 36.0668 19.4928C36.0861 19.4522 36.0943 19.4072 36.0906 19.3624C36.0869 19.3176 36.0714 19.2746 36.0458 19.2377L28.5828 10.3377L36.0378 1.44867C36.0641 1.41267 36.0802 1.37023 36.0844 1.32584C36.0887 1.28144 36.0809 1.23674 36.0618 1.19641C36.0428 1.15608 36.0132 1.12162 35.9763 1.09668C35.9393 1.07174 35.8963 1.05724 35.8518 1.05469H32.1307C31.4781 1.08957 30.8638 1.37379 30.4148 1.84866C27.8768 4.88266 23.4708 10.1317 15.8308 19.2337C15.804 19.2698 15.7873 19.3124 15.7826 19.3571C15.7779 19.4018 15.7853 19.4469 15.804 19.4878C15.8227 19.5287 15.852 19.5638 15.8889 19.5894C15.9258 19.6151 15.9689 19.6304 16.0138 19.6337H19.7308C20.381 19.5953 20.9923 19.3111 21.4407 18.8387" fill="#746661"/>
<path d="M5.02298 1.6787C5.02351 1.59652 5.0077 1.51506 4.97647 1.43905C4.94524 1.36303 4.89922 1.29398 4.84106 1.23592C4.78291 1.17786 4.71379 1.13193 4.63773 1.10082C4.56166 1.06971 4.48016 1.05404 4.39798 1.05471H0.629974C0.547562 1.05405 0.465837 1.06968 0.389496 1.10073C0.313155 1.13178 0.243704 1.17762 0.18515 1.23562C0.126596 1.29361 0.0800897 1.36264 0.0483093 1.43868C0.016529 1.51472 0.000129225 1.59629 0 1.6787V17.1227C0.000529967 17.7887 0.265384 18.4272 0.736389 18.898C1.20739 19.3688 1.84602 19.6334 2.51199 19.6337H12.904C13.2313 19.641 13.556 19.5732 13.8529 19.4354C14.1499 19.2976 14.4113 19.0934 14.617 18.8387L16.978 16.0237C17.0049 15.9874 17.0215 15.9446 17.0261 15.8996C17.0306 15.8547 17.023 15.8093 17.004 15.7684C16.9849 15.7274 16.9552 15.6924 16.9178 15.6669C16.8805 15.6414 16.8371 15.6265 16.792 15.6237H5.65399C5.4868 15.6232 5.3266 15.5565 5.20837 15.4383C5.09015 15.3201 5.02351 15.1599 5.02298 14.9927V1.6787Z" fill="#746661"/>
<path d="M93.8274 0.709599C92.7056 0.726417 91.6044 1.0135 90.6172 1.54654C89.63 2.07958 88.7859 2.84284 88.1564 3.77158C87.4154 0.69458 84.3284 -0.286423 82.3984 1.94358C82.4112 1.97055 82.4292 1.99471 82.4514 2.01459C84.0664 3.55859 84.1724 4.95759 84.2214 7.42459V19.9786H88.8274V8.36557C88.8274 8.36557 90.6274 4.50858 93.2444 4.72358C95.2284 4.88558 95.3964 6.53058 95.3964 8.03458V19.9786H99.9964V8.18457C100.216 2.05557 95.9704 0.653599 93.8344 0.709599" fill="#92252B"/>
<path d="M74.1078 0.709961V16.7599C74.1304 17.9025 74.042 19.0445 73.8438 20.17C74.5293 20.3391 75.2464 20.3333 75.929 20.153C76.6117 19.9726 77.2382 19.6236 77.7508 19.1379C78.5788 18.3519 78.7037 17.5439 78.7257 15.4959C78.7417 14.1959 78.7257 0.709961 78.7257 0.709961H74.1078Z" fill="#92252B"/>
<path d="M66.9985 2.86328C66.4182 2.86289 65.8508 3.03457 65.3681 3.35663C64.8854 3.67869 64.509 4.13667 64.2866 4.67264C64.0642 5.20861 64.0057 5.79849 64.1185 6.36771C64.2313 6.93692 64.5104 7.45991 64.9205 7.87051C65.3305 8.28112 65.8531 8.5609 66.4222 8.6745C66.9912 8.7881 67.5812 8.7304 68.1174 8.5087C68.6537 8.287 69.1122 7.91126 69.4349 7.42899C69.7576 6.94671 69.9301 6.37958 69.9305 5.79929C69.9309 5.41395 69.8554 5.03231 69.7082 4.67618C69.5611 4.32005 69.3452 3.99641 69.0729 3.72376C68.8006 3.4511 68.4772 3.23477 68.1213 3.08713C67.7654 2.93948 67.3839 2.86341 66.9985 2.86328Z" fill="#92252B"/>
<path d="M66.9985 12.2422C66.4181 12.2418 65.8507 12.4135 65.3679 12.7357C64.8851 13.0578 64.5088 13.5159 64.2864 14.052C64.064 14.5881 64.0056 15.1781 64.1186 15.7473C64.2316 16.3166 64.5109 16.8396 64.9212 17.2501C65.3314 17.6606 65.8542 17.9403 66.4234 18.0537C66.9926 18.167 67.5826 18.1091 68.1188 17.8871C68.6551 17.665 69.1134 17.289 69.4359 16.8064C69.7584 16.3239 69.9305 15.7566 69.9305 15.1762C69.9309 14.7909 69.8554 14.4094 69.7082 14.0534C69.561 13.6974 69.345 13.3738 69.0727 13.1013C68.8004 12.8289 68.4771 12.6127 68.1211 12.4653C67.7652 12.3179 67.3838 12.2421 66.9985 12.2422Z" fill="#92252B"/>
<path d="M50.5622 19.7509C52.7239 20.2398 54.9512 20.3706 57.1552 20.1379C60.3922 19.6949 61.8692 17.828 60.7762 15.051C58.1902 16.417 54.1422 17.018 51.2222 15.769L60.7042 0.709961H45.0172V4.70996H52.9902L43.5312 18.943C45.8975 18.9344 48.2564 19.2049 50.5592 19.749" fill="#92252B"/>
</g>
<defs>
<clipPath id="clip0_1247_1775">
<rect width="100.007" height="19.5843" fill="white" transform="translate(0 0.708008)"/>
</clipPath>
</defs>
</svg>
